# xmcd
#
# Track frame offsets:
#	150
#	16592
#	36157
#	54260
#	67988
#	83060
#	95664
#	103723
#	112709
#	124974
#	142110
#
# Disc length: 2133 seconds
# Revision: 0
# Processed by: cddbd v1.5.2PL0 Copyright (c) Steve Scherf et al.
# Submitted via: dBpowerAMP V12.0
#
DISCID=8708530b
DTITLE=Bonnie Bailiff - Everything It Wants
DYEAR=2001
DGENRE=Folk
TTITLE0=Everything It Wants
TTITLE1=Just Passing Through
TTITLE2=Looking For Answers
TTITLE3=Outside Jackson
TTITLE4=Choosing How I Want to Live
TTITLE5=Brainwashed by Society
TTITLE6=Nothin' Quite as Relaxin'
TTITLE7=Goin' Down to the Canyon
TTITLE8=Resistance
TTITLE9=Why Wyoming
TTITLE10=All on Your Side
EXTD=
EXTT0=
EXTT1=
EXTT2=
EXTT3=
EXTT4=
EXTT5=
EXTT6=
EXTT7=
EXTT8=
EXTT9=
EXTT10=
PLAYORDER=
